<svg width="512" height="512" viewBox="0 0 512 512" xmlns="http://www.w3.org/2000/svg" role="img" aria-label="Sigmatec">
<defs>
<linearGradient id="g" x1="0" y1="0" x2="1" y2="1">
<stop offset="0" stop-color="#15BFC2"/>
<stop offset="1" stop-color="#34C75A"/>
</linearGradient>
</defs>
<rect x="0" y="0" width="512" height="512" rx="116" fill="#ffffff"/>
<g transform="translate(256,256)">
<g fill="url(#g)">
<g transform="rotate(0)"><rect x="-22" y="-218" width="44" height="58" rx="11"/></g>
<g transform="rotate(30)"><rect x="-22" y="-218" width="44" height="58" rx="11"/></g>
<g transform="rotate(60)"><rect x="-22" y="-218" width="44" height="58" rx="11"/></g>
<g transform="rotate(90)"><rect x="-22" y="-218" width="44" height="58" rx="11"/></g>
<g transform="rotate(120)"><rect x="-22" y="-218" width="44" height="58" rx="11"/></g>
<g transform="rotate(150)"><rect x="-22" y="-218" width="44" height="58" rx="11"/></g>
<g transform="rotate(180)"><rect x="-22" y="-218" width="44" height="58" rx="11"/></g>
<g transform="rotate(210)"><rect x="-22" y="-218" width="44" height="58" rx="11"/></g>
<g transform="rotate(240)"><rect x="-22" y="-218" width="44" height="58" rx="11"/></g>
<g transform="rotate(270)"><rect x="-22" y="-218" width="44" height="58" rx="11"/></g>
<g transform="rotate(300)"><rect x="-22" y="-218" width="44" height="58" rx="11"/></g>
<g transform="rotate(330)"><rect x="-22" y="-218" width="44" height="58" rx="11"/></g>
</g>
<circle r="168" fill="none" stroke="url(#g)" stroke-width="56"/>
<circle r="148" fill="#ffffff"/>
<text x="0" y="0" text-anchor="middle" dominant-baseline="central" font-family="Arial, Helvetica, sans-serif" font-weight="700" font-size="232" fill="url(#g)">&#931;</text>
</g>
</svg>
